# xmcd
#
# Track frame offsets: 
#        150
#        11843
#        24354
#        29012
#        38515
#        50413
#        58804
#        67831
#        76645
#        89766
#        100745
#        105750
#        111624
#        120756
#        137490
#        149499
#        162499
#        173279
#        180539
#
# Disc length: 2511 seconds
#
# Revision: 0
# Processed by: cddbd v1.5.2PL0 Copyright (c) Steve Scherf et al.
# Submitted via: ExactAudioCopy v0.95b3
#
DISCID=eb09cd13
DTITLE=Merle Haggard - In Concert
DYEAR=2001
DGENRE=Country
TTITLE0=Okie From Muskogee
TTITLE1=Fightin' Side Of Me
TTITLE2=Swinging Doors
TTITLE3=I Can't Be Myself
TTITLE4=Soldiers Letter
TTITLE5=Harold
TTITLE6=Today I Started Loving You Again
TTITLE7=Hobo Bill
TTITLE8=Right Or Wrong
TTITLE9=Mama Tried
TTITLE10=Walk A Mile In My Shoes
TTITLE11=It's A Beautfiul Day
TTITLE12=What's Wrong About Feeling Good
TTITLE13=My Woman My Woman
TTITLE14=Working Man's Blues
TTITLE15=Jimmy Rogers Blue Yodel
TTITLE16=Silver Wings
TTITLE17=I'm A Lonesome Fugitive
TTITLE18=Branded Man
EXTD=
EXTT0=
EXTT1=
EXTT2=
EXTT3=
EXTT4=
EXTT5=
EXTT6=
EXTT7=
EXTT8=
EXTT9=
EXTT10=
EXTT11=
EXTT12=
EXTT13=
EXTT14=
EXTT15=
EXTT16=
EXTT17=
EXTT18=
PLAYORDER=
